HIERARCHY
ROOT Hips
{
	OFFSET 0 0 0
	CHANNELS 6 Xposition Yposition Zposition Yrotation Xrotation Zrotation
	JOINT Spine
	{
		OFFSET -0 8.73536 -2.7844
		CHANNELS 3 Yrotation Xrotation Zrotation
		JOINT Spine1
		{
			OFFSET -0 11.2677 0
			CHANNELS 3 Yrotation Xrotation Zrotation
			JOINT Spine2
			{
				OFFSET -0 11.2677 0
				CHANNELS 3 Yrotation Xrotation Zrotation
				JOINT Spine3
				{
					OFFSET -0 11.2677 0
					CHANNELS 3 Yrotation Xrotation Zrotation
					JOINT Neck
					{
						OFFSET -0 13.4982 3.7844
						CHANNELS 3 Yrotation Xrotation Zrotation
						JOINT Head
						{
							OFFSET -0 10.9192 0
							CHANNELS 3 Yrotation Xrotation Zrotation
							End Site
							{
								OFFSET 0 15 0
							}
						}
					}
					JOINT LeftShoulder
					{
						OFFSET 1.81987 1.10026 3.63973
						CHANNELS 3 Yrotation Xrotation Zrotation
						JOINT LeftArm
						{
							OFFSET 16.8433 0 0
							CHANNELS 3 Yrotation Xrotation Zrotation
							JOINT LeftForeArm
							{
								OFFSET 29.2679 0 0
								CHANNELS 3 Yrotation Xrotation Zrotation
								JOINT LeftHand
								{
									OFFSET 23.0344 0 0
									CHANNELS 3 Yrotation Xrotation Zrotation
									End Site
									{
										OFFSET 15 0 0
									}
								}
							}
						}
					}
					JOINT RightShoulder
					{
						OFFSET -1.81987 1.10026 3.63973
						CHANNELS 3 Yrotation Xrotation Zrotation
						JOINT RightArm
						{
							OFFSET -16.8433 0 0
							CHANNELS 3 Yrotation Xrotation Zrotation
							JOINT RightForeArm
							{
								OFFSET -29.2679 0 0
								CHANNELS 3 Yrotation Xrotation Zrotation
								JOINT RightHand
								{
									OFFSET -23.0344 0 0
									CHANNELS 3 Yrotation Xrotation Zrotation
									End Site
									{
										OFFSET -15 0 0
									}
								}
							}
						}
					}
				}
			}
		}
	}
	JOINT LeftUpLeg
	{
		OFFSET 10.9192 -3.63973 2
		CHANNELS 3 Yrotation Xrotation Zrotation
		JOINT LeftLeg
		{
			OFFSET -0 -38.6359 2.54781
			CHANNELS 3 Yrotation Xrotation Zrotation
			JOINT LeftFoot
			{
				OFFSET -0 -42.9088 -2.54781
				CHANNELS 3 Yrotation Xrotation Zrotation
				JOINT LeftToeBase
				{
					OFFSET -0 -7.0265 16.3788
					CHANNELS 3 Yrotation Xrotation Zrotation
					End Site
					{
						OFFSET 0 0 5
					}
				}
			}
		}
	}
	JOINT RightUpLeg
	{
		OFFSET -10.9192 -3.63973 2
		CHANNELS 3 Yrotation Xrotation Zrotation
		JOINT RightLeg
		{
			OFFSET -0 -38.6359 2.54781
			CHANNELS 3 Yrotation Xrotation Zrotation
			JOINT RightFoot
			{
				OFFSET -0 -42.9088 -2.54781
				CHANNELS 3 Yrotation Xrotation Zrotation
				JOINT RightToeBase
				{
					OFFSET -0 -7.0265 16.3788
					CHANNELS 3 Yrotation Xrotation Zrotation
					End Site
					{
						OFFSET 0 0 5
					}
				}
			}
		}
	}
}
MOTION
Frames: 16
Frame Time: 0.00833333
0 96.033514 0 0 0 0 0 0 0 0 0 0 0 0 0 0 0 0 0 0 0 0 0 0 0 0 0 0 0 0 0 0 0 0 0 0 0 0 0 0 0 0 0 0 0 0 0 0 0 0 0 0 0 0 0 0 0 0 0 0 0 0 0 0 0 0 0 0 0 0 0 0
-104.096008 95.533472 62.583710 0.200642 2.007240 0.485852 -0.243049 1.002924 0.072338 -0.084645 1.051719 0.056377 0.438070 1.017924 0.051956 0.603250 1.075767 0.070134 -17.289726 -1.700142 -2.672369 -7.526949 11.295449 -3.267486 12.704786 6.300686 6.297845 -50.567585 -2.712833 -70.986459 -17.077960 0.397807 9.630197 27.479955 -16.408008 -2.462741 -11.661127 5.044753 -2.185002 48.576170 1.230059 66.691085 17.807854 3.846406 -1.687785 -16.912250 -14.397528 1.371244 12.458871 -0.616810 8.998664 0.000000 0.776858 0.000000 7.131106 4.874467 -11.348843 0.000000 -8.351785 0.000000 -14.717449 0.053051 -6.412264 0.000000 3.742235 0.000000 -13.815780 -0.306099 7.949812 0.000000 -5.335187 0.000000
-104.098926 95.530371 62.584088 0.205411 2.007346 0.480998 -0.251057 1.014985 0.065604 -0.093543 1.031762 0.070847 0.449271 1.012111 0.075751 0.622900 1.085296 0.062238 -17.302418 -1.700560 -2.722035 -7.522837 11.294238 -3.209495 12.674981 6.318236 6.296015 -50.544864 -2.730142 -70.968917 -17.056965 0.331530 9.612819 27.455582 -16.470765 -2.361497 -11.667843 5.052884 -2.212351 48.555120 1.247760 66.683210 17.840661 3.930104 -1.669976 -16.993570 -14.528159 1.221726 12.449846 -0.614197 9.002119 0.000000 0.770911 0.000000 7.126579 4.884845 -11.307505 0.000000 -8.398678 0.000000 -14.723691 0.050955 -6.407568 0.000000 3.755084 0.000000 -13.809369 -0.324194 7.955546 0.000000 -5.313449 0.000000
-104.097192 95.531293 62.582343 0.197431 2.003656 0.479236 -0.245305 1.014887 0.085756 -0.084506 1.040623 0.065526 0.453490 1.017566 0.052461 0.620924 1.063818 0.066747 -17.313559 -1.679378 -2.698791 -7.529622 11.258312 -3.211382 12.639701 6.295869 6.297464 -50.520031 -2.662114 -70.996548 -17.075582 0.412034 9.653545 27.462757 -16.607198 -2.393692 -11.663906 5.061728 -2.203052 48.535896 1.271262 66.667521 17.843224 3.931519 -1.664192 -16.980077 -14.567981 1.142742 12.452826 -0.611948 9.002527 0.000000 0.771964 0.000000 7.131285 4.886306 -11.300865 0.000000 -8.411538 0.000000 -14.735194 0.042355 -6.407653 0.000000 3.763451 0.000000 -13.777748 -0.320420 7.917390 0.000000 -5.326107 0.000000
-104.096826 95.530133 62.584253 0.199279 2.002817 0.475822 -0.245998 1.008868 0.105234 -0.082749 1.051124 0.068204 0.461696 1.017132 0.041299 0.628115 1.062740 0.063506 -17.330793 -1.699186 -2.719906 -7.530642 11.265518 -3.161972 12.610777 6.300177 6.300603 -50.517817 -2.625384 -70.963206 -17.099462 0.358156 9.632520 27.412477 -16.676009 -2.343180 -11.675247 5.052420 -2.211537 48.527930 1.301259 66.659082 17.867425 3.902640 -1.641404 -16.964973 -14.548582 1.082597 12.432576 -0.606407 9.006989 0.000000 0.770522 0.000000 7.151902 4.888547 -11.298415 0.000000 -8.420186 0.000000 -14.735679 0.036269 -6.404860 0.000000 3.778616 0.000000 -13.789701 -0.327676 7.913911 0.000000 -5.343588 0.000000
-104.096008 95.527222 62.584052 0.199455 2.000169 0.483776 -0.244475 1.016060 0.101899 -0.078872 1.043492 0.061633 0.444311 1.009842 0.035510 0.614820 1.077962 0.050083 -17.310717 -1.706620 -2.660283 -7.529328 11.260034 -3.187883 12.633754 6.288439 6.335556 -50.459501 -2.665926 -70.955516 -17.061393 0.274030 9.605352 27.347798 -16.673247 -2.241362 -11.631203 5.063952 -2.186976 48.518490 1.334933 66.623507 17.878527 3.941678 -1.627280 -17.079872 -14.520592 1.005909 12.433717 -0.607011 9.000077 0.000000 0.781819 0.000000 7.144957 4.876587 -11.322172 0.000000 -8.403681 0.000000 -14.761051 0.030189 -6.415561 0.000000 3.790700 0.000000 -13.758083 -0.337562 7.927845 0.000000 -5.330350 0.000000
-104.098645 95.529376 62.583160 0.204249 1.995518 0.489108 -0.250087 1.021312 0.074422 -0.085249 1.050685 0.074515 0.457502 1.018648 0.076352 0.633335 1.041467 0.064791 -17.318302 -1.720067 -2.678369 -7.536177 11.286356 -3.243736 12.576106 6.307571 6.284762 -50.377767 -2.649340 -70.960979 -17.037882 0.311391 9.606281 27.311446 -16.653696 -2.242529 -11.666040 5.072225 -2.214448 48.561217 1.407340 66.569347 17.913834 3.951992 -1.578810 -17.109177 -14.644143 0.983833 12.431179 -0.609043 8.996878 0.000000 0.791145 0.000000 7.135045 4.894591 -11.338107 0.000000 -8.434600 0.000000 -14.805943 0.020654 -6.420201 0.000000 3.803349 0.000000 -13.719725 -0.329836 7.927647 0.000000 -5.354398 0.000000
-104.097363 95.526038 62.581445 0.200840 1.994149 0.485938 -0.247522 1.026606 0.093251 -0.080059 1.052649 0.069884 0.452770 1.023081 0.056110 0.625611 1.039661 0.061005 -17.343693 -1.737910 -2.690411 -7.539829 11.283077 -3.176620 12.593522 6.314615 6.313341 -50.446096 -2.619326 -70.927758 -17.044076 0.274322 9.600546 27.267977 -16.738183 -2.252233 -11.655347 5.085526 -2.210913 48.552978 1.404738 66.549787 17.875218 3.995504 -1.613692 -17.047992 -14.524363 1.120246 12.414443 -0.603283 8.999737 0.000000 0.791730 0.000000 7.170110 4.882375 -11.328488 0.000000 -8.413499 0.000000 -14.824379 0.011578 -6.418925 0.000000 3.818878 0.000000 -13.699619 -0.355524 7.923844 0.000000 -5.319545 0.000000
-104.097913 95.525134 62.582190 0.203353 1.990046 0.491488 -0.242642 1.034605 0.085730 -0.074295 1.053314 0.068626 0.439369 1.002712 0.062455 0.614333 1.048208 0.062234 -17.336448 -1.733524 -2.707545 -7.529287 11.270323 -3.111592 12.588066 6.336316 6.311222 -50.403683 -2.617440 -70.901331 -17.042533 0.295166 9.568286 27.275532 -16.798955 -2.187441 -11.624893 5.089799 -2.222886 48.542948 1.421201 66.538792 17.821834 4.039188 -1.623486 -16.973887 -14.459617 1.199762 12.431338 -0.608113 8.992910 0.000000 0.803026 0.000000 7.135358 4.870090 -11.294193 0.000000 -8.419577 0.000000 -14.841413 0.005230 -6.426348 0.000000 3.835493 0.000000 -13.679883 -0.354807 7.926045 0.000000 -5.333856 0.000000
-104.098303 95.527032 62.580804 0.213308 1.982224 0.489378 -0.251598 1.042838 0.082884 -0.082143 1.059832 0.071287 0.436612 1.013791 0.065885 0.614406 1.028621 0.055864 -17.317842 -1.739086 -2.680331 -7.523070 11.264362 -3.107184 12.585023 6.327265 6.312342 -50.478296 -2.536527 -70.908384 -17.062988 0.327910 9.622236 27.340077 -16.974123 -2.201364 -11.615753 5.121961 -2.207076 48.521688 1.429724 66.478201 17.808830 4.099792 -1.601202 -17.022281 -14.422611 1.153100 12.414465 -0.604577 8.998543 0.000000 0.804023 0.000000 7.157370 4.869494 -11.326596 0.000000 -8.393707 0.000000 -14.831802 -0.006015 -6.427447 0.000000 3.872674 0.000000 -13.695422 -0.349439 7.962957 0.000000 -5.354718 0.000000
-104.098804 95.528333 62.579755 0.218568 1.978835 0.481663 -0.249040 1.052113 0.089708 -0.079668 1.053574 0.079999 0.433063 0.998892 0.073265 0.615001 1.039327 0.046643 -17.320652 -1.736972 -2.695028 -7.518492 11.252901 -3.057879 12.559903 6.332743 6.313438 -50.421144 -2.556886 -70.882703 -17.014597 0.340503 9.552541 27.302418 -17.078578 -2.048523 -11.594853 5.109977 -2.222590 48.487066 1.456063 66.501385 17.777630 4.190944 -1.651109 -17.130329 -14.364327 1.163063 12.398771 -0.600686 9.008834 0.000000 0.800210 0.000000 7.154790 4.875678 -11.304241 0.000000 -8.391344 0.000000 -14.848901 -0.016318 -6.422288 0.000000 3.899802 0.000000 -13.675687 -0.351894 7.948968 0.000000 -5.322078 0.000000
-104.101221 95.527350 62.577997 0.221307 1.976678 0.488833 -0.258814 1.052642 0.065250 -0.089208 1.059552 0.074771 0.425075 1.014744 0.085361 0.606639 1.023917 0.057195 -17.321630 -1.743145 -2.659223 -7.524719 11.236981 -3.092027 12.609025 6.326866 6.324025 -50.495397 -2.535717 -70.892039 -16.976466 0.342212 9.602907 27.290614 -17.161539 -1.996872 -11.586313 5.081182 -2.215012 48.543012 1.521114 66.465117 17.762582 4.229490 -1.636591 -17.198357 -14.438104 1.186821 12.407032 -0.604484 9.001839 0.000000 0.807315 0.000000 7.153020 4.880816 -11.312524 0.000000 -8.391438 0.000000 -14.869042 -0.018309 -6.428032 0.000000 3.896969 0.000000 -13.667910 -0.343956 7.936075 0.000000 -5.350658 0.000000
-104.101965 95.525409 62.573755 0.237689 1.974590 0.490675 -0.251726 1.061041 0.062183 -0.081628 1.063329 0.072294 0.428728 1.002566 0.090216 0.599228 1.021823 0.097978 -17.347752 -1.760542 -2.696879 -7.531384 11.241728 -3.079359 12.556006 6.336780 6.306606 -50.454354 -2.545979 -70.907364 -16.953955 0.378473 9.606223 27.305398 -17.300316 -1.949592 -11.604932 5.103026 -2.265375 48.477981 1.502907 66.419766 17.729276 4.258817 -1.593192 -17.137769 -14.577306 1.238625 12.399933 -0.605892 8.999121 0.000000 0.805567 0.000000 7.138311 4.863983 -11.289014 0.000000 -8.376286 0.000000 -14.912884 -0.031468 -6.427600 0.000000 3.917341 0.000000 -13.642910 -0.365712 7.929102 0.000000 -5.329067 0.000000
-104.101111 95.526935 62.575262 0.252604 1.970767 0.483895 -0.255915 1.063244 0.080410 -0.084293 1.058481 0.073100 0.424755 0.998479 0.075735 0.594876 1.036080 0.089998 -17.373940 -1.756948 -2.680652 -7.542686 11.232549 -3.063352 12.549695 6.324946 6.336138 -50.406963 -2.581443 -70.903988 -16.898401 0.306246 9.564724 27.203630 -17.198444 -1.791537 -11.578057 5.097923 -2.271058 48.441336 1.509408 66.432676 17.704647 4.263046 -1.611083 -17.179759 -14.620514 1.245095 12.385855 -0.600410 9.007516 0.000000 0.797480 0.000000 7.133769 4.871171 -11.282574 0.000000 -8.375683 0.000000 -14.933551 -0.045006 -6.425004 0.000000 3.953450 0.000000 -13.637220 -0.350153 7.956227 0.000000 -5.347964 0.000000
-104.102612 95.526605 62.573950 0.261953 1.966999 0.491008 -0.258400 1.070059 0.067061 -0.086542 1.063941 0.068947 0.416068 1.009093 0.079533 0.587533 0.991448 0.090297 -17.373836 -1.747932 -2.666418 -7.543222 11.247281 -3.050912 12.556113 6.319739 6.359253 -50.388853 -2.561447 -70.931287 -16.901096 0.249695 9.569380 27.208222 -17.155810 -1.659444 -11.584945 5.085082 -2.282315 48.508925 1.573161 66.461258 17.661989 4.282759 -1.654081 -17.195314 -14.709280 1.241817 12.379761 -0.603788 9.001471 0.000000 0.807059 0.000000 7.135059 4.871742 -11.291138 0.000000 -8.362231 0.000000 -14.969981 -0.052609 -6.432117 0.000000 3.962705 0.000000 -13.604172 -0.357395 7.915184 0.000000 -5.352903 0.000000
-104.106250 95.528381 62.574799 0.283597 1.963715 0.489315 -0.272573 1.060410 0.055762 -0.100520 1.085869 0.072046 0.420378 0.999681 0.092828 0.594317 1.003702 0.094022 -17.371635 -1.771880 -2.634036 -7.549154 11.252871 -3.099996 12.543079 6.301707 6.360900 -50.349293 -2.570837 -70.940136 -16.888115 0.215513 9.556716 27.212315 -17.260588 -1.498598 -11.567106 5.094048 -2.290581 48.410623 1.540841 66.428738 17.612141 4.332253 -1.622950 -17.132392 -14.683514 1.267316 12.379975 -0.604054 9.004521 0.000000 0.799174 0.000000 7.114136 4.873839 -11.305798 0.000000 -8.372262 0.000000 -14.989780 -0.058688 -6.429399 0.000000 3.988718 0.000000 -13.611792 -0.360514 7.944760 0.000000 -5.342625 0.000000
